<?xml version="1.0" standalone="no"?>
<!DOCTYPE svg PUBLIC "-//W3C//DTD SVG 20010904//EN"
 "http://www.w3.org/TR/2001/REC-SVG-20010904/DTD/svg10.dtd">
<svg version="1.0" xmlns="http://www.w3.org/2000/svg"
 width="1000.000000pt" height="1000.000000pt" viewBox="0 0 1000.000000 1000.000000"
 preserveAspectRatio="xMidYMid meet">
<metadata>
Created by potrace 1.11, written by Peter Selinger 2001-2013
</metadata>
<g transform="translate(0.000000,1000.000000) scale(0.100000,-0.100000)"
fill="#000000" stroke="none">
<path d="M1896 7213 c15 -27 31 -52 34 -58 4 -5 18 -30 32 -55 14 -25 90 -157
170 -295 80 -137 156 -270 170 -295 14 -25 132 -229 263 -455 131 -225 248
-428 260 -450 41 -74 108 -190 130 -225 12 -19 53 -89 90 -155 38 -66 134
-232 213 -370 79 -137 152 -263 161 -280 9 -16 42 -73 72 -125 31 -52 134
-230 229 -395 95 -165 239 -415 320 -555 81 -140 157 -271 168 -290 10 -19 35
-62 54 -95 19 -33 54 -93 77 -133 l43 -74 64 108 c35 59 64 110 64 112 0 2 14
24 30 49 16 24 30 51 30 60 0 9 -42 89 -94 177 -107 185 -363 629 -383 666 -8
14 -22 39 -32 55 -10 17 -45 75 -76 130 -32 55 -65 114 -75 130 -69 119 -167
287 -188 325 -13 25 -28 50 -32 55 -5 6 -19 30 -32 55 -14 25 -34 61 -45 80
-29 49 -381 658 -405 700 -53 92 -209 361 -237 408 -17 29 -31 55 -31 58 0 2
-11 21 -23 42 -45 70 -487 839 -487 845 0 3 1102 1 4173 -4 664 -1 1207 -5
1207 -8 -1 -3 -11 -23 -23 -43 -12 -20 -51 -87 -87 -149 -36 -62 -77 -133 -92
-158 -15 -25 -33 -57 -41 -71 -7 -14 -73 -128 -147 -255 -73 -126 -172 -297
-220 -380 -278 -483 -546 -944 -561 -970 -10 -16 -28 -47 -39 -68 -11 -21 -63
-110 -115 -199 -52 -88 -95 -163 -95 -165 0 -2 -16 -29 -35 -59 -19 -30 -35
-56 -35 -58 0 -3 -26 -49 -58 -103 -32 -54 -61 -105 -65 -113 -5 -8 -19 -33
-32 -55 -13 -22 -33 -56 -43 -75 -10 -19 -58 -102 -106 -185 -49 -82 -105
-179 -126 -215 -54 -92 -289 -499 -310 -535 -28 -49 -124 -214 -144 -248 -10
-18 -30 -52 -44 -77 -13 -25 -48 -85 -77 -135 -67 -114 -301 -519 -327 -565
-11 -19 -29 -49 -39 -67 l-20 -32 87 -153 c48 -84 92 -161 99 -170 9 -14 23 3
90 120 44 75 165 286 270 467 105 182 278 481 385 665 106 184 224 387 261
450 36 63 77 133 89 155 27 48 195 338 260 450 26 44 109 188 185 320 76 132
219 379 317 548 98 170 187 323 196 340 10 18 36 64 59 102 23 39 108 185 189
325 80 140 187 325 236 410 50 85 99 171 110 190 19 32 128 221 266 460 30 52
63 109 72 125 76 133 246 426 262 453 l20 32 -3257 0 -3256 0 27 -47z"/>
<path d="M1654 6448 c72 -124 241 -418 258 -448 11 -19 63 -109 116 -200 52
-91 103 -179 113 -197 10 -17 29 -50 43 -72 15 -22 26 -42 26 -44 0 -2 44 -80
98 -173 54 -93 110 -189 124 -214 14 -25 83 -144 153 -265 70 -121 136 -233
145 -250 18 -31 437 -757 593 -1025 49 -85 97 -168 107 -185 92 -161 489 -848
543 -940 23 -38 47 -79 53 -90 5 -11 85 -148 176 -305 91 -157 173 -300 182
-318 9 -18 20 -32 25 -32 4 0 74 116 156 257 81 142 167 290 190 328 23 39 53
90 67 115 14 25 92 160 173 300 81 140 159 275 173 300 14 25 35 61 47 80 12
19 25 42 28 50 4 8 17 31 28 50 27 44 273 469 307 530 14 25 44 77 67 115 38
64 56 96 113 195 10 19 43 76 72 125 29 50 61 106 72 125 22 39 114 196 128
220 12 19 433 750 465 805 12 22 37 65 55 95 18 30 43 73 55 95 12 22 56 99
97 170 42 72 86 148 99 171 56 97 221 380 229 394 6 8 42 71 81 140 39 69 73
128 76 133 2 4 -937 7 -2087 7 -1753 0 -2091 -2 -2088 -14 2 -7 39 -74 83
-150 l80 -136 40 -1 c22 0 799 -1 1727 -1 l1687 -1 -33 -61 c-33 -61 -314
-548 -407 -704 -27 -46 -49 -88 -49 -93 0 -5 -4 -9 -9 -9 -5 0 -11 -8 -14 -17
-6 -20 -25 -53 -157 -278 -48 -82 -140 -242 -205 -355 -65 -113 -141 -245
-170 -295 -29 -49 -127 -218 -218 -375 -447 -773 -769 -1331 -856 -1482 -53
-92 -98 -168 -101 -168 -3 0 -14 17 -26 38 -11 20 -123 215 -249 432 -125 217
-237 411 -248 430 -10 19 -76 134 -146 255 -70 121 -190 328 -266 460 -75 132
-148 257 -161 277 -13 21 -24 40 -24 42 0 2 -20 37 -43 78 -34 57 -323 557
-417 723 -10 17 -195 338 -413 715 l-395 685 -197 3 -196 2 25 -42z"/>
</g>
</svg>
